<?xml version="1.0" encoding="utf-8"?>
<svg width="64px" height="64px" viewBox="0 0 64 64" version="1.1" xmlns:xlink="http://www.w3.org/1999/xlink" xmlns="http://www.w3.org/2000/svg">
  <path d="M0 32C0 14.3364 14.314 0 32 0C49.686 0 64 14.3364 64 32C64 44.8596 56.4014 55.9557 45.4523 61.0401C41.3619 62.9396 36.804 64 32 64C14.3364 64 0 49.6636 0 32ZM35.238 13.2421C34.434 7.8381 32.268 5.40404 32.0893 5.20306C31.9107 5.38171 29.7222 7.8381 28.9407 13.2421C29.9232 13.4208 30.9951 13.5101 32.0893 13.5324C33.1835 13.5324 34.2554 13.4208 35.238 13.2421ZM32.0224 29.5213C33.2283 29.4989 34.3895 29.4096 35.4614 29.2086C35.4486 27.069 35.465 23.4765 35.4772 20.7844L35.4772 20.7831C35.4864 18.7558 35.4933 17.2395 35.4837 17.2394C35.4837 15.8995 35.3944 14.716 35.2604 13.6218C34.2778 13.8004 33.1836 13.8897 32.0671 13.9121C30.9506 13.9121 29.8563 13.8004 28.8738 13.6218C28.7398 14.716 28.6505 15.9218 28.6505 17.2394C28.6505 17.2617 28.5835 25.4571 28.5835 29.2086C29.6554 29.4096 30.8389 29.4989 32.0224 29.5213ZM28.1591 29.164L21.1919 29.1417L28.2484 18.3782L28.1591 29.164ZM35.8855 18.3782L42.7857 29.1417L35.8408 29.164L35.8855 18.3782ZM32.2457 31.397C30.9729 31.397 29.7224 31.2854 28.5835 31.0844L28.5835 29.5883C29.7224 29.7892 30.9729 29.9009 32.2457 29.9009C33.3623 29.9009 34.4342 29.8116 35.4614 29.6552L35.4614 31.1514C34.4342 31.3077 33.3623 31.397 32.2457 31.397ZM10.1382 42.5401L16.6588 42.5401C19.2268 42.5401 21.2812 40.4857 21.2812 37.9623L21.2142 31.5534L24.4745 31.5534L24.4745 38.9896C24.4745 39.0119 24.4076 40.4634 24.0056 41.2226C23.2017 42.7188 22.1298 43.8577 20.723 44.7062C19.1821 45.6441 17.7976 45.8228 15.8102 45.8228L10.1382 45.8228L10.1382 42.5401ZM53.8619 49.4404L47.3413 49.4404C40.9993 49.4404 35.8186 44.3043 35.8186 37.9623L35.8186 31.5534L39.1236 31.5534L39.1236 38.9896C39.1236 39.0565 39.1906 40.575 39.6372 41.4013C40.4634 42.9644 41.6023 44.148 43.0538 45.0412C44.6616 46.0237 46.1131 46.2247 48.1899 46.2247L53.8619 46.2247L53.8619 49.4404ZM10.1382 49.4404L16.6588 49.4404C23.0007 49.4404 28.1591 44.3043 28.1814 37.9847L28.1814 31.5757L24.8765 31.5757L24.8765 39.0119C24.8765 39.0789 24.8095 40.5974 24.3629 41.4236C23.5366 42.9644 22.4201 44.1703 20.9463 45.0635C19.3161 46.0684 17.887 46.2471 15.8102 46.2471L10.1382 46.2471L10.1382 49.4404ZM48.2122 45.8451L53.8842 45.8451L53.8842 42.5625L47.3636 42.5625C44.7956 42.5625 42.7412 40.5081 42.7412 37.9847L42.8081 31.5757L39.5479 31.5757L39.5479 39.0119C39.5479 39.0119 39.6148 40.4857 40.0168 41.245C40.8207 42.7188 41.8926 43.88 43.2994 44.7286C44.8179 45.6665 46.2024 45.8451 48.2122 45.8451ZM30.5708 31.7543C30.7494 34.635 32.0893 36.3098 32.0893 36.3098C32.0893 36.3098 33.4291 34.4787 33.4738 31.799C33.0942 31.799 32.6922 31.8213 32.2903 31.8213C31.7097 31.8213 31.1291 31.799 30.5708 31.7543Z" id="ic_joyjet" fill="#FFFFFF" fill-rule="evenodd" stroke="none" />
</svg>