<?xml version="1.0" encoding="utf-8"?>
<!-- Generator: Adobe Illustrator 17.0.0, SVG Export Plug-In . SVG Version: 6.00 Build 0)  -->
<!DOCTYPE svg PUBLIC "-//W3C//DTD SVG 1.1//EN" "http://www.w3.org/Graphics/SVG/1.1/DTD/svg11.dtd">
<svg version="1.1" id="Camada_1" xmlns="http://www.w3.org/2000/svg" xmlns:xlink="http://www.w3.org/1999/xlink" x="0px" y="0px"
	 width="64px" height="64px" viewBox="0 0 64 64" enable-background="new 0 0 64 64" xml:space="preserve">
<desc>Created with Lunacy</desc>
<path id="ic_joyjet" fill="#FFFFFF" d="M0,32C0,14.336,14.314,0,32,0s32,14.336,32,32S49.664,64,32,64S0,49.664,0,32z
	 M35.238,13.242c-0.804-5.404-2.97-7.838-3.149-8.039c-0.179,0.179-2.367,2.635-3.149,8.039c0.983,0.179,2.054,0.268,3.149,0.29
	C33.183,13.532,34.255,13.421,35.238,13.242z M32.022,29.521c1.206-0.022,2.367-0.112,3.439-0.313
	c-0.013-2.14,0.004-5.732,0.016-8.424v-0.001c0.009-2.027,0.016-3.544,0.007-3.544c0-1.34-0.089-2.523-0.223-3.618
	c-0.983,0.179-2.077,0.268-3.193,0.29c-1.117,0-2.211-0.112-3.193-0.29c-0.134,1.094-0.223,2.3-0.223,3.618
	c0,0.022-0.067,8.218-0.067,11.969C29.655,29.41,30.839,29.499,32.022,29.521z M28.159,29.164l-6.967-0.022l7.056-10.764
	L28.159,29.164z M35.886,18.378l6.9,10.764l-6.945,0.022L35.886,18.378z M32.246,31.397c-1.273,0-2.523-0.112-3.662-0.313v-1.496
	c1.139,0.201,2.389,0.313,3.662,0.313c1.117,0,2.188-0.089,3.216-0.246v1.496C34.434,31.308,33.362,31.397,32.246,31.397z
	 M10.138,42.54h6.521c2.568,0,4.622-2.054,4.622-4.578l-0.067-6.409h3.26v7.436c0,0.022-0.067,1.474-0.469,2.233
	c-0.804,1.496-1.876,2.635-3.283,3.484c-1.541,0.938-2.925,1.117-4.913,1.117h-5.672V42.54z M53.862,49.44h-6.521
	c-6.342,0-11.523-5.136-11.523-11.478v-6.409h3.305v7.436c0,0.067,0.067,1.585,0.514,2.412c0.826,1.563,1.965,2.747,3.417,3.64
	c1.608,0.983,3.059,1.184,5.136,1.184h5.672V49.44z M10.138,49.44h6.521c6.342,0,11.5-5.136,11.523-11.456v-6.409h-3.305v7.436
	c0,0.067-0.067,1.585-0.514,2.412c-0.826,1.541-1.943,2.747-3.417,3.64c-1.63,1.005-3.059,1.184-5.136,1.184h-5.672V49.44z
	 M48.212,45.845h5.672v-3.283h-6.521c-2.568,0-4.622-2.054-4.622-4.578l0.067-6.409h-3.26v7.436c0,0,0.067,1.474,0.469,2.233
	c0.804,1.474,1.876,2.635,3.283,3.484C44.818,45.667,46.202,45.845,48.212,45.845z M30.571,31.754
	c0.179,2.881,1.518,4.556,1.518,4.556s1.34-1.831,1.385-4.511c-0.38,0-0.782,0.022-1.184,0.022
	C31.71,31.821,31.129,31.799,30.571,31.754z"/>
</svg>
